<svg width="35" height="35" viewBox="0 0 35 35" fill="none" xmlns="http://www.w3.org/2000/svg">
<path d="M17.5 3.28125C9.64551 3.28125 3.28125 9.64551 3.28125 17.5V20.2344C3.28125 21.1436 2.5498 21.875 1.64062 21.875C0.731445 21.875 0 21.1436 0 20.2344V17.5C0 7.83398 7.83398 0 17.5 0C27.166 0 35 7.83398 35 17.5V27.3506C35 30.6729 32.3066 33.3662 28.9775 33.3662L21.4375 33.3594C20.8701 34.3369 19.8105 35 18.5938 35H16.4062C14.5947 35 13.125 33.5303 13.125 31.7188C13.125 29.9072 14.5947 28.4375 16.4062 28.4375H18.5938C19.8105 28.4375 20.8701 29.1006 21.4375 30.0781L28.9844 30.085C30.4951 30.085 31.7188 28.8613 31.7188 27.3506V17.5C31.7188 9.64551 25.3545 3.28125 17.5 3.28125ZM9.84375 14.2188H10.9375C12.1475 14.2188 13.125 15.1963 13.125 16.4062V24.0625C13.125 25.2725 12.1475 26.25 10.9375 26.25H9.84375C7.43066 26.25 5.46875 24.2881 5.46875 21.875V18.5938C5.46875 16.1807 7.43066 14.2188 9.84375 14.2188ZM25.1562 14.2188C27.5693 14.2188 29.5312 16.1807 29.5312 18.5938V21.875C29.5312 24.2881 27.5693 26.25 25.1562 26.25H24.0625C22.8525 26.25 21.875 25.2725 21.875 24.0625V16.4062C21.875 15.1963 22.8525 14.2188 24.0625 14.2188H25.1562Z" fill="black"/>
</svg>
