<svg width="20" height="20" viewBox="0 0 20 20" fill="none" xmlns="http://www.w3.org/2000/svg">
<path d="M17 2.91006C16.0832 1.98399 14.9912 1.24973 13.7876 0.750111C12.5841 0.250494 11.2931 -0.00448012 9.99 5.95696e-05C4.53 5.95696e-05 0.0800002 4.45006 0.0800002 9.91006C0.0800002 11.6601 0.54 13.3601 1.4 14.8601L0 20.0001L5.25 18.6201C6.7 19.4101 8.33 19.8301 9.99 19.8301C15.45 19.8301 19.9 15.3801 19.9 9.92006C19.9 7.27006 18.87 4.78006 17 2.91006ZM9.99 18.1501C8.51 18.1501 7.06 17.7501 5.79 17.0001L5.49 16.8201L2.37 17.6401L3.2 14.6001L3 14.2901C2.17775 12.977 1.74114 11.4593 1.74 9.91006C1.74 5.37006 5.44 1.67006 9.98 1.67006C12.18 1.67006 14.25 2.53006 15.8 4.09006C16.5675 4.85402 17.1757 5.76272 17.5894 6.76348C18.0031 7.76425 18.214 8.83717 18.21 9.92006C18.23 14.4601 14.53 18.1501 9.99 18.1501ZM14.51 11.9901C14.26 11.8701 13.04 11.2701 12.82 11.1801C12.59 11.1001 12.43 11.0601 12.26 11.3001C12.09 11.5501 11.62 12.1101 11.48 12.2701C11.34 12.4401 11.19 12.4601 10.94 12.3301C10.69 12.2101 9.89 11.9401 8.95 11.1001C8.21 10.4401 7.72 9.63006 7.57 9.38006C7.43 9.13006 7.55 9.00006 7.68 8.87006C7.79 8.76006 7.93 8.58006 8.05 8.44006C8.17 8.30006 8.22 8.19006 8.3 8.03006C8.38 7.86006 8.34 7.72006 8.28 7.60006C8.22 7.48006 7.72 6.26006 7.52 5.76006C7.32 5.28006 7.11 5.34006 6.96 5.33006H6.48C6.31 5.33006 6.05 5.39006 5.82 5.64006C5.6 5.89006 4.96 6.49006 4.96 7.71006C4.96 8.93006 5.85 10.1101 5.97 10.2701C6.09 10.4401 7.72 12.9401 10.2 14.0101C10.79 14.2701 11.25 14.4201 11.61 14.5301C12.2 14.7201 12.74 14.6901 13.17 14.6301C13.65 14.5601 14.64 14.0301 14.84 13.4501C15.05 12.8701 15.05 12.3801 14.98 12.2701C14.91 12.1601 14.76 12.1101 14.51 11.9901Z" fill="white"/>
</svg>
